<svg width="96" height="96" viewBox="0 0 96 96" fill="none" xmlns="http://www.w3.org/2000/svg">
<path d="M48 48C51.3333 48 54.1667 46.8333 56.5 44.5C58.8333 42.1667 60 39.3333 60 36C60 32.6667 58.8333 29.8333 56.5 27.5C54.1667 25.1667 51.3333 24 48 24C44.6667 24 41.8333 25.1667 39.5 27.5C37.1667 29.8333 36 32.6667 36 36C36 39.3333 37.1667 42.1667 39.5 44.5C41.8333 46.8333 44.6667 48 48 48ZM42 38C41.4667 38 41 37.8 40.6 37.4C40.2 37 40 36.5333 40 36C40 35.4667 40.2 35 40.6 34.6C41 34.2 41.4667 34 42 34C42.5333 34 43 34.2 43.4 34.6C43.8 35 44 35.4667 44 36C44 36.5333 43.8 37 43.4 37.4C43 37.8 42.5333 38 42 38ZM48 38C47.4667 38 47 37.8 46.6 37.4C46.2 37 46 36.5333 46 36C46 35.4667 46.2 35 46.6 34.6C47 34.2 47.4667 34 48 34C48.5333 34 49 34.2 49.4 34.6C49.8 35 50 35.4667 50 36C50 36.5333 49.8 37 49.4 37.4C49 37.8 48.5333 38 48 38ZM54 38C53.4667 38 53 37.8 52.6 37.4C52.2 37 52 36.5333 52 36C52 35.4667 52.2 35 52.6 34.6C53 34.2 53.4667 34 54 34C54.5333 34 55 34.2 55.4 34.6C55.8 35 56 35.4667 56 36C56 36.5333 55.8 37 55.4 37.4C55 37.8 54.5333 38 54 38ZM20 84C17.8 84 15.916 83.2173 14.348 81.652C12.7827 80.084 12 78.2 12 76V20C12 17.8 12.7827 15.916 14.348 14.348C15.916 12.7827 17.8 12 20 12H76C78.2 12 80.084 12.7827 81.652 14.348C83.2173 15.916 84 17.8 84 20V76C84 78.2 83.2173 80.084 81.652 81.652C80.084 83.2173 78.2 84 76 84H20ZM20 76H76V20H20V76Z" fill="black"/>
</svg>
