<svg width="96" height="96" viewBox="0 0 96 96" fill="none" xmlns="http://www.w3.org/2000/svg">
<path d="M44.4 36C40.7333 36 37.1333 36.5167 33.6 37.55C30.0667 38.5833 26.8 40.1333 23.8 42.2L28 80H68L72.4 40H69.7C67.1667 40 64.85 39.8167 62.75 39.45C60.65 39.0833 57.8 38.3667 54.2 37.3C52.6667 36.8333 51.0667 36.5 49.4 36.3C47.7333 36.1 46.0667 36 44.4 36ZM20.9 16L22.8 33.5C26.2 31.7 29.7167 30.3333 33.35 29.4C36.9833 28.4667 40.7 28 44.5 28C46.5 28 48.4833 28.1333 50.45 28.4C52.4167 28.6667 54.3667 29.0667 56.3 29.6C59.6333 30.5333 62.1833 31.1667 63.95 31.5C65.7167 31.8333 67.6 32 69.6 32H73.3L75 16H20.9ZM44.4 80H68H28H44.4ZM28 88C25.9333 88 24.1333 87.3333 22.6 86C21.0667 84.6667 20.2 82.9667 20 80.9L12.5 12.4C12.3667 11.2 12.7 10.1667 13.5 9.3C14.3 8.43333 15.3 8 16.5 8H79.5C80.7 8 81.7 8.43333 82.5 9.3C83.3 10.1667 83.6333 11.2 83.5 12.4L76 80.9C75.8 82.9667 74.9333 84.6667 73.4 86C71.8667 87.3333 70.0667 88 68 88H28Z" fill="black"/>
<path d="M44.4004 36C46.0669 36 47.7338 36.0998 49.4004 36.2998C51.0669 36.4998 52.667 36.8332 54.2002 37.2998C57.8001 38.3665 60.65 39.0835 62.75 39.4502C64.85 39.8169 67.1669 40 69.7002 40H72.4004L68 80H28L23.7998 42.2002C26.7997 40.1336 30.0664 38.5831 33.5996 37.5498C37.1329 36.5165 40.7337 36 44.4004 36Z" fill="#2196F3"/>
</svg>
