<svg width="96" height="96" viewBox="0 0 96 96" fill="none" xmlns="http://www.w3.org/2000/svg">
<path d="M20.9 17.5C28 80 20.9 17.5 28 80C48.9673 80 68 80 68 80L75 17.5H20.9ZM28 89.5C25.9333 89.5 24.1333 88.8333 22.6 87.5C21.0667 86.1667 20.2 84.4667 20 82.4L12.5 13.9C12.3667 12.7 12.7 11.6667 13.5 10.8C14.3 9.93333 15.3 9.5 16.5 9.5H79.5C80.7 9.5 81.7 9.93333 82.5 10.8C83.3 11.6667 83.6333 12.7 83.5 13.9L76 82.4C75.8 84.4667 74.9333 86.1667 73.4 87.5C71.8667 88.8333 70.0667 89.5 68 89.5H28Z" fill="black"/>
</svg>
